<svg width="14" height="11" viewBox="0 0 14 11" fill="none" xmlns="http://www.w3.org/2000/svg">
<path d="M2.31006 2.69006C2.31006 1.65006 3.15006 0.810059 4.19006 0.810059C5.22006 0.810059 6.06006 1.65006 6.06006 2.69006C6.06006 3.72006 5.22006 4.56006 4.19006 4.56006C3.15006 4.56006 2.31006 3.72006 2.31006 2.69006Z" stroke="#B9A988" stroke-width="1.62" stroke-linecap="round" stroke-linejoin="round"/>
<path d="M0.810059 10.1901C0.810059 6.44006 7.56006 6.44006 7.56006 10.1901" stroke="#B9A988" stroke-width="1.62" stroke-linecap="round" stroke-linejoin="round"/>
<path d="M8.31006 2.31006C8.31006 1.48006 8.98006 0.810059 9.81006 0.810059C10.6401 0.810059 11.3101 1.48006 11.3101 2.31006C11.3101 3.14006 10.6401 3.81006 9.81006 3.81006C8.98006 3.81006 8.31006 3.14006 8.31006 2.31006Z" stroke="#B9A988" stroke-width="1.62" stroke-linecap="round" stroke-linejoin="round"/>
<path d="M8.68994 10.1901C8.68994 6.81009 12.8099 6.81009 12.8099 9.81009" stroke="#B9A988" stroke-width="1.62" stroke-linecap="round" stroke-linejoin="round"/>
</svg>
